# xmcd CD database file
#
# Track frame offsets:
#	150
#	21128
#	36469
#	59566
#	76633
#	96883
#	122001
#	142127
#	157093
#	175446
#	195191
#	213493
#	230452
#	246514
#
# Disc length: 3603 seconds
#
# Revision: 0
# Processed by: cddbd v1.5.2PL0 Copyright (c) Steve Scherf et al.
# Submitted via: CDex 1.51
#
DISCID=c70e110e
DTITLE=Molly Johnson - Because Of Billie
DYEAR=2014
DGENRE=Jazz
TTITLE0=Body And Soul
TTITLE1=What A Little Moonlight Can Do 
TTITLE2=Fine and Mellow 
TTITLE3=Them There Eyes 
TTITLE4=You've Changed 
TTITLE5=God Bless The Child 
TTITLE6=How Deep Is The Ocean 
TTITLE7=Strange Fruit 
TTITLE8=Lady Sings The Blues 
TTITLE9=Do Nothing 'Till You Hear From Me 
TTITLE10=You Go To My Head 
TTITLE11=They Can't Take That Away From Me
TTITLE12=Now Or Never 
TTITLE13=Don't Explain 
EXTD=YEAR: 2014
EXTT0=
EXTT1=
EXTT2=
EXTT3=
EXTT4=
EXTT5=
EXTT6=
EXTT7=
EXTT8=
EXTT9=
EXTT10=
EXTT11=
EXTT12=
EXTT13=
PLAYORDER=
